<svg width="714" height="714" viewBox="0 0 714 714" fill="none" xmlns="http://www.w3.org/2000/svg">
<path fill-rule="evenodd" clip-rule="evenodd" d="M714 0H0V714H714V0ZM357 614C497.833 614 612 499.833 612 359C612 218.167 497.833 104 357 104C216.167 104 102 218.167 102 359C102 499.833 216.167 614 357 614Z" fill="white"/>
<path d="M490.805 90.5278L492.445 76.0747H508.383V80.7817H497.074L496.371 86.895C497.712 86.1789 499.138 85.8208 500.648 85.8208C503.357 85.8208 505.479 86.6606 507.016 88.3403C508.552 90.02 509.32 92.3703 509.32 95.3911C509.32 97.2271 508.93 98.8742 508.148 100.333C507.38 101.778 506.273 102.904 504.828 103.711C503.383 104.506 501.677 104.903 499.711 104.903C497.992 104.903 496.397 104.558 494.926 103.868C493.454 103.165 492.289 102.181 491.43 100.918C490.583 99.6554 490.134 98.2166 490.082 96.6021H495.668C495.785 97.7869 496.195 98.7114 496.898 99.3755C497.615 100.027 498.546 100.352 499.691 100.352C500.967 100.352 501.951 99.8963 502.641 98.9849C503.331 98.0604 503.676 96.7583 503.676 95.0786C503.676 93.464 503.279 92.2271 502.484 91.3677C501.69 90.5083 500.564 90.0786 499.105 90.0786C497.764 90.0786 496.677 90.4302 495.844 91.1333L495.297 91.6411L490.805 90.5278ZM513.773 90.5278L515.414 76.0747H531.352V80.7817H520.043L519.34 86.895C520.681 86.1789 522.107 85.8208 523.617 85.8208C526.326 85.8208 528.448 86.6606 529.984 88.3403C531.521 90.02 532.289 92.3703 532.289 95.3911C532.289 97.2271 531.898 98.8742 531.117 100.333C530.349 101.778 529.242 102.904 527.797 103.711C526.352 104.506 524.646 104.903 522.68 104.903C520.961 104.903 519.366 104.558 517.895 103.868C516.423 103.165 515.258 102.181 514.398 100.918C513.552 99.6554 513.103 98.2166 513.051 96.6021H518.637C518.754 97.7869 519.164 98.7114 519.867 99.3755C520.583 100.027 521.514 100.352 522.66 100.352C523.936 100.352 524.919 99.8963 525.609 98.9849C526.299 98.0604 526.645 96.7583 526.645 95.0786C526.645 93.464 526.247 92.2271 525.453 91.3677C524.659 90.5083 523.533 90.0786 522.074 90.0786C520.733 90.0786 519.646 90.4302 518.812 91.1333L518.266 91.6411L513.773 90.5278Z" fill="#363636"/>
<path d="M604.305 202.12L605.945 187.667H621.883V192.374H610.574L609.871 198.487C611.212 197.771 612.638 197.413 614.148 197.413C616.857 197.413 618.979 198.253 620.516 199.933C622.052 201.612 622.82 203.963 622.82 206.983C622.82 208.819 622.43 210.466 621.648 211.925C620.88 213.37 619.773 214.496 618.328 215.304C616.883 216.098 615.177 216.495 613.211 216.495C611.492 216.495 609.897 216.15 608.426 215.46C606.954 214.757 605.789 213.774 604.93 212.511C604.083 211.248 603.634 209.809 603.582 208.194H609.168C609.285 209.379 609.695 210.304 610.398 210.968C611.115 211.619 612.046 211.944 613.191 211.944C614.467 211.944 615.451 211.489 616.141 210.577C616.831 209.653 617.176 208.351 617.176 206.671C617.176 205.056 616.779 203.819 615.984 202.96C615.19 202.101 614.064 201.671 612.605 201.671C611.264 201.671 610.177 202.022 609.344 202.726L608.797 203.233L604.305 202.12ZM645.574 204.347C645.574 208.279 644.76 211.287 643.133 213.37C641.505 215.453 639.122 216.495 635.984 216.495C632.885 216.495 630.516 215.473 628.875 213.429C627.234 211.384 626.395 208.455 626.355 204.64V199.405C626.355 195.434 627.176 192.42 628.816 190.362C630.47 188.305 632.846 187.276 635.945 187.276C639.044 187.276 641.414 188.299 643.055 190.343C644.695 192.374 645.535 195.297 645.574 199.112V204.347ZM639.93 198.604C639.93 196.248 639.604 194.535 638.953 193.468C638.315 192.387 637.312 191.847 635.945 191.847C634.617 191.847 633.634 192.361 632.996 193.39C632.371 194.405 632.039 196 632 198.175V205.089C632 207.407 632.312 209.132 632.938 210.265C633.576 211.384 634.591 211.944 635.984 211.944C637.365 211.944 638.361 211.404 638.973 210.323C639.585 209.243 639.904 207.589 639.93 205.362V198.604Z" fill="#363636"/>
<path d="M665.164 356.492H668.387V361.043H665.164V367.195H659.52V361.043H647.859L647.605 357.488L659.461 338.758H665.164V356.492ZM653.23 356.492H659.52V346.453L659.148 347.098L653.23 356.492ZM672.273 353.211L673.914 338.758H689.852V343.465H678.543L677.84 349.578C679.181 348.862 680.607 348.504 682.117 348.504C684.826 348.504 686.948 349.344 688.484 351.023C690.021 352.703 690.789 355.053 690.789 358.074C690.789 359.91 690.398 361.557 689.617 363.016C688.849 364.461 687.742 365.587 686.297 366.395C684.852 367.189 683.146 367.586 681.18 367.586C679.461 367.586 677.866 367.241 676.395 366.551C674.923 365.848 673.758 364.865 672.898 363.602C672.052 362.339 671.603 360.9 671.551 359.285H677.137C677.254 360.47 677.664 361.395 678.367 362.059C679.083 362.71 680.014 363.035 681.16 363.035C682.436 363.035 683.419 362.579 684.109 361.668C684.799 360.743 685.145 359.441 685.145 357.762C685.145 356.147 684.747 354.91 683.953 354.051C683.159 353.191 682.033 352.762 680.574 352.762C679.233 352.762 678.146 353.113 677.312 353.816L676.766 354.324L672.273 353.211Z" fill="#363636"/>
<path d="M621.664 509.297H624.887V513.848H621.664V520H616.02V513.848H604.359L604.105 510.293L615.961 491.562H621.664V509.297ZM609.73 509.297H616.02V499.258L615.648 499.902L609.73 509.297ZM647.074 508.242C647.074 512.174 646.26 515.182 644.633 517.266C643.005 519.349 640.622 520.391 637.484 520.391C634.385 520.391 632.016 519.368 630.375 517.324C628.734 515.28 627.895 512.35 627.855 508.535V503.301C627.855 499.329 628.676 496.315 630.316 494.258C631.97 492.201 634.346 491.172 637.445 491.172C640.544 491.172 642.914 492.194 644.555 494.238C646.195 496.27 647.035 499.193 647.074 503.008V508.242ZM641.43 502.5C641.43 500.143 641.104 498.431 640.453 497.363C639.815 496.283 638.812 495.742 637.445 495.742C636.117 495.742 635.134 496.257 634.496 497.285C633.871 498.301 633.539 499.896 633.5 502.07V508.984C633.5 511.302 633.812 513.027 634.438 514.16C635.076 515.28 636.091 515.84 637.484 515.84C638.865 515.84 639.861 515.299 640.473 514.219C641.085 513.138 641.404 511.484 641.43 509.258V502.5Z" fill="#363636"/>
<path d="M499.207 621.16H502.215C503.647 621.16 504.708 620.802 505.398 620.085C506.089 619.369 506.434 618.419 506.434 617.234C506.434 616.088 506.089 615.196 505.398 614.558C504.721 613.92 503.784 613.601 502.586 613.601C501.505 613.601 500.6 613.901 499.871 614.5C499.142 615.085 498.777 615.854 498.777 616.804H493.133C493.133 615.32 493.53 613.992 494.324 612.82C495.132 611.635 496.251 610.71 497.684 610.046C499.129 609.382 500.717 609.05 502.449 609.05C505.457 609.05 507.814 609.773 509.52 611.218C511.225 612.651 512.078 614.63 512.078 617.156C512.078 618.458 511.681 619.656 510.887 620.75C510.092 621.843 509.051 622.683 507.762 623.269C509.363 623.842 510.555 624.701 511.336 625.847C512.13 626.993 512.527 628.347 512.527 629.91C512.527 632.436 511.603 634.46 509.754 635.984C507.918 637.507 505.483 638.269 502.449 638.269C499.611 638.269 497.286 637.52 495.477 636.023C493.68 634.526 492.781 632.546 492.781 630.085H498.426C498.426 631.153 498.823 632.026 499.617 632.703C500.424 633.38 501.414 633.718 502.586 633.718C503.927 633.718 504.975 633.367 505.73 632.664C506.499 631.947 506.883 631.003 506.883 629.832C506.883 626.993 505.32 625.574 502.195 625.574H499.207V621.16ZM517.273 623.894L518.914 609.441H534.852V614.148H523.543L522.84 620.261C524.181 619.545 525.607 619.187 527.117 619.187C529.826 619.187 531.948 620.027 533.484 621.707C535.021 623.386 535.789 625.736 535.789 628.757C535.789 630.593 535.398 632.24 534.617 633.699C533.849 635.144 532.742 636.27 531.297 637.078C529.852 637.872 528.146 638.269 526.18 638.269C524.461 638.269 522.866 637.924 521.395 637.234C519.923 636.531 518.758 635.548 517.898 634.285C517.052 633.022 516.603 631.583 516.551 629.968H522.137C522.254 631.153 522.664 632.078 523.367 632.742C524.083 633.393 525.014 633.718 526.16 633.718C527.436 633.718 528.419 633.263 529.109 632.351C529.799 631.427 530.145 630.125 530.145 628.445C530.145 626.83 529.747 625.593 528.953 624.734C528.159 623.875 527.033 623.445 525.574 623.445C524.233 623.445 523.146 623.796 522.312 624.5L521.766 625.007L517.273 623.894Z" fill="#363636"/>
<path d="M80.6758 215.104H75.0312V193.347L68.293 195.437V190.847L80.0703 186.628H80.6758V215.104ZM109.074 203.347C109.074 207.279 108.26 210.287 106.633 212.37C105.005 214.453 102.622 215.495 99.4844 215.495C96.3854 215.495 94.0156 214.473 92.375 212.429C90.7344 210.384 89.8945 207.455 89.8555 203.64V198.405C89.8555 194.434 90.6758 191.42 92.3164 189.362C93.9701 187.305 96.3464 186.276 99.4453 186.276C102.544 186.276 104.914 187.299 106.555 189.343C108.195 191.374 109.035 194.297 109.074 198.112V203.347ZM103.43 197.604C103.43 195.248 103.104 193.535 102.453 192.468C101.815 191.387 100.812 190.847 99.4453 190.847C98.1172 190.847 97.1341 191.361 96.4961 192.39C95.8711 193.405 95.5391 195 95.5 197.175V204.089C95.5 206.407 95.8125 208.132 96.4375 209.265C97.0755 210.384 98.0911 210.944 99.4844 210.944C100.865 210.944 101.861 210.404 102.473 209.323C103.085 208.243 103.404 206.589 103.43 204.362V197.604Z" fill="#363636"/>
<path d="M194.42 89.8772L196.06 75.4241H211.998V80.1311H200.689L199.986 86.2444C201.327 85.5282 202.753 85.1702 204.263 85.1702C206.972 85.1702 209.094 86.01 210.631 87.6897C212.167 89.3694 212.935 91.7196 212.935 94.7405C212.935 96.5764 212.545 98.2236 211.763 99.6819C210.995 101.127 209.888 102.253 208.443 103.061C206.998 103.855 205.292 104.252 203.326 104.252C201.607 104.252 200.012 103.907 198.541 103.217C197.069 102.514 195.904 101.531 195.045 100.268C194.198 99.0048 193.749 97.566 193.697 95.9514H199.283C199.4 97.1363 199.81 98.0608 200.513 98.7249C201.23 99.3759 202.16 99.7014 203.306 99.7014C204.582 99.7014 205.565 99.2457 206.256 98.3342C206.946 97.4097 207.291 96.1077 207.291 94.428C207.291 92.8134 206.894 91.5764 206.099 90.717C205.305 89.8577 204.179 89.428 202.72 89.428C201.379 89.428 200.292 89.7795 199.459 90.4827L198.912 90.9905L194.42 89.8772Z" fill="#363636"/>
<path d="M368.563 51.2422C368.563 55.1745 367.749 58.1823 366.121 60.2656C364.494 62.349 362.111 63.3906 358.973 63.3906C355.874 63.3906 353.504 62.3685 351.863 60.3242C350.223 58.2799 349.383 55.3503 349.344 51.5352V46.3008C349.344 42.3294 350.164 39.3151 351.805 37.2578C353.459 35.2005 355.835 34.1719 358.934 34.1719C362.033 34.1719 364.403 35.194 366.043 37.2383C367.684 39.2695 368.524 42.1927 368.563 46.0078V51.2422ZM362.918 45.5C362.918 43.1432 362.593 41.431 361.942 40.3633C361.304 39.2826 360.301 38.7422 358.934 38.7422C357.606 38.7422 356.623 39.2565 355.985 40.2852C355.36 41.3008 355.028 42.8958 354.988 45.0703V51.9844C354.988 54.3021 355.301 56.0273 355.926 57.1602C356.564 58.2799 357.58 58.8398 358.973 58.8398C360.353 58.8398 361.349 58.2995 361.961 57.2188C362.573 56.138 362.892 54.4844 362.918 52.2578V45.5Z" fill="#363636"/>
<path d="M39.1758 367.195H33.5312V345.438L26.793 347.527V342.938L38.5703 338.719H39.1758V367.195ZM49.2734 353.211L50.9141 338.758H66.8516V343.465H55.543L54.8398 349.578C56.181 348.862 57.6068 348.504 59.1172 348.504C61.8255 348.504 63.9479 349.344 65.4844 351.023C67.0208 352.703 67.7891 355.053 67.7891 358.074C67.7891 359.91 67.3984 361.557 66.6172 363.016C65.849 364.461 64.7422 365.587 63.2969 366.395C61.8516 367.189 60.1458 367.586 58.1797 367.586C56.4609 367.586 54.8659 367.241 53.3945 366.551C51.9232 365.848 50.7578 364.865 49.8984 363.602C49.0521 362.339 48.6029 360.9 48.5508 359.285H54.1367C54.2539 360.47 54.6641 361.395 55.3672 362.059C56.0833 362.71 57.0143 363.035 58.1602 363.035C59.4362 363.035 60.4193 362.579 61.1094 361.668C61.7995 360.743 62.1445 359.441 62.1445 357.762C62.1445 356.147 61.7474 354.91 60.9531 354.051C60.1589 353.191 59.0326 352.762 57.5742 352.762C56.2331 352.762 55.1458 353.113 54.3125 353.816L53.7656 354.324L49.2734 353.211Z" fill="#363636"/>
<path d="M83.457 519H63.9648V515.133L73.1641 505.328C74.4271 503.948 75.3581 502.743 75.957 501.715C76.569 500.686 76.875 499.71 76.875 498.785C76.875 497.522 76.556 496.533 75.918 495.816C75.2799 495.087 74.3685 494.723 73.1836 494.723C71.9076 494.723 70.8984 495.165 70.1562 496.051C69.4271 496.923 69.0625 498.076 69.0625 499.508H63.3984C63.3984 497.776 63.8086 496.194 64.6289 494.762C65.4622 493.329 66.6341 492.21 68.1445 491.402C69.6549 490.582 71.3672 490.172 73.2812 490.172C76.2109 490.172 78.4831 490.875 80.0977 492.281C81.7253 493.688 82.5391 495.673 82.5391 498.238C82.5391 499.645 82.1745 501.077 81.4453 502.535C80.7161 503.993 79.4661 505.693 77.6953 507.633L71.2305 514.449H83.457V519ZM106.074 507.242C106.074 511.174 105.26 514.182 103.633 516.266C102.005 518.349 99.6224 519.391 96.4844 519.391C93.3854 519.391 91.0156 518.368 89.375 516.324C87.7344 514.28 86.8945 511.35 86.8555 507.535V502.301C86.8555 498.329 87.6758 495.315 89.3164 493.258C90.9701 491.201 93.3464 490.172 96.4453 490.172C99.5443 490.172 101.914 491.194 103.555 493.238C105.195 495.27 106.035 498.193 106.074 502.008V507.242ZM100.43 501.5C100.43 499.143 100.104 497.431 99.4531 496.363C98.8151 495.283 97.8125 494.742 96.4453 494.742C95.1172 494.742 94.1341 495.257 93.4961 496.285C92.8711 497.301 92.5391 498.896 92.5 501.07V507.984C92.5 510.302 92.8125 512.027 93.4375 513.16C94.0755 514.28 95.0911 514.84 96.4844 514.84C97.8646 514.84 98.8607 514.299 99.4727 513.219C100.085 512.138 100.404 510.484 100.43 508.258V501.5Z" fill="#363636"/>
<path d="M196.957 638.878H177.465V635.011L186.664 625.207C187.927 623.826 188.858 622.622 189.457 621.593C190.069 620.565 190.375 619.588 190.375 618.664C190.375 617.401 190.056 616.411 189.418 615.695C188.78 614.966 187.868 614.601 186.684 614.601C185.408 614.601 184.398 615.044 183.656 615.929C182.927 616.802 182.562 617.954 182.562 619.386H176.898C176.898 617.654 177.309 616.072 178.129 614.64C178.962 613.208 180.134 612.088 181.645 611.281C183.155 610.46 184.867 610.05 186.781 610.05C189.711 610.05 191.983 610.753 193.598 612.16C195.225 613.566 196.039 615.552 196.039 618.117C196.039 619.523 195.674 620.955 194.945 622.414C194.216 623.872 192.966 625.571 191.195 627.511L184.73 634.328H196.957V638.878ZM201.273 624.894L202.914 610.441H218.852V615.148H207.543L206.84 621.261C208.181 620.545 209.607 620.187 211.117 620.187C213.826 620.187 215.948 621.027 217.484 622.707C219.021 624.386 219.789 626.736 219.789 629.757C219.789 631.593 219.398 633.24 218.617 634.699C217.849 636.144 216.742 637.27 215.297 638.078C213.852 638.872 212.146 639.269 210.18 639.269C208.461 639.269 206.866 638.924 205.395 638.234C203.923 637.531 202.758 636.548 201.898 635.285C201.052 634.022 200.603 632.583 200.551 630.968H206.137C206.254 632.153 206.664 633.078 207.367 633.742C208.083 634.393 209.014 634.718 210.16 634.718C211.436 634.718 212.419 634.263 213.109 633.351C213.799 632.427 214.145 631.125 214.145 629.445C214.145 627.83 213.747 626.593 212.953 625.734C212.159 624.875 211.033 624.445 209.574 624.445C208.233 624.445 207.146 624.796 206.312 625.5L205.766 626.007L201.273 624.894Z" fill="#363636"/>
<path d="M343.207 658.63H346.215C347.647 658.63 348.708 658.272 349.398 657.556C350.089 656.84 350.434 655.889 350.434 654.705C350.434 653.559 350.089 652.667 349.398 652.029C348.721 651.391 347.784 651.072 346.586 651.072C345.505 651.072 344.6 651.371 343.871 651.97C343.142 652.556 342.777 653.324 342.777 654.275H337.133C337.133 652.791 337.53 651.462 338.324 650.291C339.132 649.106 340.251 648.181 341.684 647.517C343.129 646.853 344.717 646.521 346.449 646.521C349.457 646.521 351.814 647.244 353.52 648.689C355.225 650.121 356.078 652.1 356.078 654.626C356.078 655.929 355.681 657.126 354.887 658.22C354.092 659.314 353.051 660.154 351.762 660.74C353.363 661.313 354.555 662.172 355.336 663.318C356.13 664.464 356.527 665.818 356.527 667.38C356.527 669.906 355.603 671.931 353.754 673.455C351.918 674.978 349.483 675.74 346.449 675.74C343.611 675.74 341.286 674.991 339.477 673.494C337.68 671.996 336.781 670.017 336.781 667.556H342.426C342.426 668.624 342.823 669.496 343.617 670.173C344.424 670.85 345.414 671.189 346.586 671.189C347.927 671.189 348.975 670.837 349.73 670.134C350.499 669.418 350.883 668.474 350.883 667.302C350.883 664.464 349.32 663.044 346.195 663.044H343.207V658.63ZM379.574 663.591C379.574 667.524 378.76 670.531 377.133 672.615C375.505 674.698 373.122 675.74 369.984 675.74C366.885 675.74 364.516 674.718 362.875 672.673C361.234 670.629 360.395 667.699 360.355 663.884V658.65C360.355 654.679 361.176 651.664 362.816 649.607C364.47 647.55 366.846 646.521 369.945 646.521C373.044 646.521 375.414 647.543 377.055 649.587C378.695 651.619 379.535 654.542 379.574 658.357V663.591ZM373.93 657.849C373.93 655.492 373.604 653.78 372.953 652.712C372.315 651.632 371.312 651.091 369.945 651.091C368.617 651.091 367.634 651.606 366.996 652.634C366.371 653.65 366.039 655.245 366 657.419V664.333C366 666.651 366.312 668.376 366.938 669.509C367.576 670.629 368.591 671.189 369.984 671.189C371.365 671.189 372.361 670.649 372.973 669.568C373.585 668.487 373.904 666.833 373.93 664.607V657.849Z" fill="#363636"/>
<path fill-rule="evenodd" clip-rule="evenodd" d="M355.955 104.002C356.303 104.001 356.652 104 357 104C358.321 104 359.639 104.01 360.955 104.03L361 79.0045L356 78.9956L355.955 104.002ZM480.886 136.063C482.343 136.875 483.791 137.7 485.231 138.539L496.92 118.293L492.59 115.793L480.886 136.063ZM575.152 226.888C576.017 228.312 576.867 229.745 577.704 231.188L598.953 218.92L596.453 214.59L575.152 226.888ZM611.95 353.907C611.983 355.57 611.999 357.237 612 358.907H637V353.907H611.95ZM580.261 482.302C579.454 483.761 578.633 485.211 577.797 486.652L599.045 498.92L601.545 494.59L580.261 482.302ZM489.112 577.152C487.688 578.017 486.255 578.867 484.812 579.705L497.08 600.953L501.41 598.453L489.112 577.152ZM360.045 613.982C359.031 613.994 358.016 614 357 614C356.348 614 355.696 613.998 355.045 613.993L355 638.996L360 639.005L360.045 613.982ZM230.189 580.283C228.743 579.453 227.306 578.608 225.878 577.75L212.59 600.767L216.92 603.267L230.189 580.283ZM135.958 486.23C135.126 484.787 134.307 483.335 133.503 481.874L111.478 494.59L113.978 498.92L135.958 486.23ZM102 358.907C102.001 357.237 102.017 355.57 102.05 353.907H77V358.907H102ZM136.051 231.61L114.071 218.92L116.571 214.59L138.595 227.305C137.733 228.731 136.885 230.166 136.051 231.61ZM234.126 135.503C232.665 136.307 231.213 137.126 229.77 137.958L217.08 115.979L221.41 113.479L234.126 135.503Z" fill="#363636"/>
<path fill-rule="evenodd" clip-rule="evenodd" d="M333.041 105.111C333.704 105.049 334.368 104.99 335.033 104.933L333.611 89.9058L331.62 90.0942L333.041 105.111ZM380.641 105.081C381.306 105.142 381.969 105.206 382.632 105.272L383.91 91.1951L381.918 91.0143L380.641 105.081ZM407.489 108.998C408.143 109.129 408.796 109.263 409.448 109.399L412.42 95.1196L410.462 94.7121L407.489 108.998ZM433.913 115.804C434.549 116.005 435.184 116.208 435.817 116.414L440.214 102.831L438.311 102.215L433.913 115.804ZM460.65 125.946C461.259 126.218 461.867 126.491 462.474 126.767L468.358 113.637L466.533 112.819L460.65 125.946ZM506.273 152.234C506.813 152.625 507.352 153.018 507.889 153.413L516.056 142.145L514.436 140.971L506.273 152.234ZM527.406 169.295C527.902 169.741 528.396 170.189 528.888 170.638L538.552 160.094L537.077 158.742L527.406 169.295ZM546.724 188.616C547.17 189.112 547.614 189.609 548.055 190.109L558.496 180.931L557.176 179.429L546.724 188.616ZM564.65 210.958C565.038 211.5 565.423 212.044 565.806 212.59L577.159 204.607L576.008 202.971L564.65 210.958ZM588.304 251.509C588.586 252.113 588.865 252.719 589.141 253.325L601.665 247.749L600.852 245.922L588.304 251.509ZM599.628 280.314C599.834 280.948 600.037 281.583 600.237 282.219L612.644 278.323L612.045 276.415L599.628 280.314ZM606.652 306.8C606.788 307.452 606.921 308.106 607.052 308.76L619.893 306.205L619.503 304.244L606.652 306.8ZM610.668 332.773C610.735 333.435 610.8 334.099 610.863 334.763L623.586 333.639L623.41 331.647L610.668 332.773ZM610.927 382.548C610.866 383.213 610.803 383.876 610.737 384.539L623.426 385.757L623.617 383.766L610.927 382.548ZM606.222 413.229C606.08 413.881 605.937 414.532 605.79 415.182L617.936 417.775L618.353 415.819L606.222 413.229ZM598.966 439.701C598.755 440.334 598.542 440.966 598.326 441.596L610.524 445.614L611.149 443.715L598.966 439.701ZM589.367 464.178C589.092 464.785 588.814 465.391 588.534 465.996L600.236 471.313L601.064 469.492L589.367 464.178ZM567.392 503.126C567.015 503.676 566.636 504.224 566.254 504.771L575.449 511.295L576.606 509.664L567.392 503.126ZM548.183 527.747C547.742 528.247 547.298 528.745 546.853 529.241L554.739 536.323L556.075 534.835L548.183 527.747ZM528.78 547.46C528.288 547.91 527.793 548.357 527.297 548.802L534.444 556.77L535.933 555.435L528.78 547.46ZM508.272 564.305C507.736 564.701 507.198 565.095 506.658 565.486L512.723 573.929L514.347 572.762L508.272 564.305ZM465.422 589.869C464.819 590.152 464.215 590.434 463.609 590.713L467.739 599.834L469.561 599.009L465.422 589.869ZM436.266 601.44C435.632 601.647 434.998 601.851 434.362 602.054L437.233 611.003L439.138 610.391L436.266 601.44ZM409.422 608.606C408.77 608.742 408.116 608.876 407.462 609.008L409.397 618.425L411.356 618.023L409.422 608.606ZM383.087 612.682C382.424 612.749 381.76 612.814 381.096 612.876L381.987 622.289L383.978 622.1L383.087 612.682ZM336.535 613.191C335.87 613.138 335.205 613.083 334.542 613.025L333.6 623.399L335.592 623.58L336.535 613.191ZM305.526 608.802C304.872 608.668 304.22 608.532 303.568 608.393L301.554 618.073L303.512 618.481L305.526 608.802ZM278.708 601.756C278.073 601.551 277.44 601.344 276.807 601.135L273.677 610.805L275.58 611.421L278.708 601.756ZM253.867 592.283C253.257 592.013 252.648 591.741 252.041 591.466L247.926 600.65L249.751 601.468L253.867 592.283ZM208.579 566.38C208.038 565.991 207.497 565.601 206.959 565.208L200.722 573.812L202.342 574.986L208.579 566.38ZM184.316 546.632C183.825 546.181 183.337 545.727 182.85 545.272L175.904 552.851L177.378 554.203L184.316 546.632ZM164.994 526.812C164.556 526.31 164.119 525.806 163.684 525.301L155.662 532.352L156.982 533.854L164.994 526.812ZM148.587 505.968C148.202 505.424 147.819 504.878 147.439 504.33L138.722 510.459L139.873 512.095L148.587 505.968ZM123.14 460.821C122.874 460.211 122.61 459.598 122.348 458.985L112.502 463.369L113.316 465.196L123.14 460.821ZM113.532 435.048C113.334 434.412 113.138 433.774 112.944 433.136L102.025 436.565L102.624 438.473L113.532 435.048ZM106.758 408.28C106.63 407.626 106.504 406.971 106.381 406.315L95.2028 408.539L95.593 410.501L106.758 408.28ZM102.824 379.654C102.771 378.99 102.72 378.326 102.672 377.66L90.9119 378.699L91.0879 380.691L102.824 379.654ZM103.039 335.823C103.099 335.158 103.161 334.494 103.226 333.831L91.4888 332.705L91.2977 334.696L103.039 335.823ZM106.961 308.694C107.092 308.04 107.225 307.387 107.361 306.735L95.5601 304.215L95.1425 306.171L106.961 308.694ZM113.832 281.999C114.033 281.363 114.237 280.728 114.443 280.094L103.415 276.461L102.789 278.361L113.832 281.999ZM124.104 254.995C124.377 254.386 124.651 253.779 124.928 253.173L114.366 248.374L113.538 250.195L124.104 254.995ZM306.789 108.942C306.135 109.073 305.481 109.206 304.829 109.341L301.839 94.7848L303.798 94.3824L306.789 108.942ZM280.411 115.702L275.815 101.379L273.911 101.99L278.505 116.309C279.14 116.104 279.775 115.902 280.411 115.702ZM255.043 125.2L249.077 112.023L247.255 112.848L253.213 126.007C253.822 125.736 254.432 125.466 255.043 125.2ZM210.738 150.09L202.477 138.59L200.853 139.757L209.105 151.245C209.647 150.858 210.192 150.473 210.738 150.09ZM188.253 167.817L178.99 157.49L177.501 158.825L186.759 169.146C187.256 168.701 187.753 168.258 188.253 167.817ZM168.755 186.983L158.354 177.643L157.018 179.131L167.411 188.465C167.857 187.969 168.305 187.475 168.755 186.983ZM151.482 208.016L140.632 200.318L139.475 201.949L150.303 209.632C150.694 209.092 151.087 208.553 151.482 208.016Z" fill="#363636"/>
<circle cx="357" cy="359" r="35" fill="#363636"/>
</svg>
